<?xml version="1.0" encoding="UTF-8" standalone="no"?>
<svg
   xmlns:svg="http://www.w3.org/2000/svg"
   xmlns="http://www.w3.org/2000/svg"
   id="svg131"
   version="1.1"
   viewBox="0 0 122.29525 125.25819"
   xmlns:xlink="http://www.w3.org/1999/xlink">
  <defs
     id="defs125" />
 
  <g
     transform="translate(-26.542854,-102.83521)"
     id="layer1">
	 <a xlink:href="http://travelalberta.com">
    <path
       d="m 98.598268,219.84627 c -14.160923,-3.73978 -12.636182,-3.16921 -13.477213,-5.04328 l -0.708634,-1.57906 0.574622,-2.92402 c 0.605975,-3.08352 0.572453,-3.86379 -0.235161,-5.4728 -0.274347,-0.54656 -1.047486,-2.08726 -1.718072,-3.42379 -0.670613,-1.33653 -1.471375,-3.182 -1.779482,-4.10104 -0.308107,-0.91905 -0.90514,-2.19412 -1.326727,-2.83351 -0.42156,-0.63938 -0.845185,-1.59188 -0.941361,-2.11666 -0.0962,-0.52479 -0.515091,-1.34525 -0.93091,-1.82326 -0.415819,-0.478 -0.75602,-0.99541 -0.75602,-1.14978 0,-0.15437 -0.247333,-0.62801 -0.549593,-1.05252 -0.317976,-0.44654 -0.655849,-1.52195 -0.801661,-2.55155 -0.158776,-1.12127 -0.488368,-2.12336 -0.890799,-2.70859 -0.35134,-0.51088 -0.760015,-1.25227 -0.908209,-1.64752 -0.148166,-0.39525 -0.689133,-0.99057 -1.202134,-1.32292 -0.919321,-0.59559 -1.259073,-1.56602 -0.674687,-1.92718 0.14552,-0.0899 0.264583,-0.82464 0.264583,-1.63267 0,-1.43703 1.735402,-6.41917 13.540158,-38.8725 l 1.067355,-2.93432 5.859251,1.94852 c 3.222599,1.07169 8.121466,2.61138 10.886366,3.42153 2.76489,0.81016 7.63738,2.23688 10.82772,3.17049 3.19038,0.93361 5.83002,1.72683 5.86592,1.76272 0.17452,0.17452 -0.78687,4.0582 -1.0478,4.23284 -0.16502,0.11042 -0.58722,0.27701 -0.93827,0.37019 -0.66397,0.17624 -3.44188,2.92177 -3.45519,3.41492 -0.004,0.15495 0.41757,0.48447 0.93721,0.73227 0.90916,0.43355 0.97343,0.43015 1.70413,-0.0902 0.41764,-0.29739 0.83679,-0.78471 0.93146,-1.08294 0.0946,-0.29822 0.22672,-0.4876 0.29348,-0.42083 0.0668,0.0668 -0.34745,2.07004 -0.92049,4.45171 -1.35287,5.62266 -2.81104,11.71261 -4.80634,20.07302 -0.88561,3.71078 -1.89688,7.9375 -2.24726,9.39271 -1.76679,7.33774 -3.33955,13.8923 -4.1901,17.46249 -4.49043,18.84855 -4.11113,17.34458 -4.36137,17.29296 -0.0993,-0.0204 -1.84748,-0.47744 -3.884772,-1.01547 z"
       id="CA-AB"
       style="fill:#d3d3d3;stroke-width:0.26458332" />
	 </a>
	 <a xlink:href="http://travel-british-columbia.com">
    <path
       id="path6"
       d="m 84.310768,215.98687 c -0.241353,-0.0704 -5.691425,-1.76422 -9.921875,-3.08364 -1.459045,-0.45506 -16.919151,-6.25121 -23.283333,-8.72917 -1.091406,-0.42496 -2.341562,-0.90331 -2.778125,-1.06303 -1.010893,-0.36981 -1.181602,-0.6374 -1.186576,-1.85994 -0.0029,-0.68461 -0.177298,-1.13833 -0.559753,-1.45521 -1.538076,-1.27439 -2.090129,-1.91322 -2.090129,-2.41866 0,-0.30542 -0.102817,-0.55531 -0.228494,-0.55531 -0.641588,0 -1.566572,-1.40694 -1.728735,-2.62951 -0.262678,-1.98009 -1.145196,-3.70283 -2.707058,-5.2844 -1.39819,-1.41582 -1.412081,-1.44573 -1.257855,-2.71197 0.126391,-1.03758 0.07969,-1.28037 -0.246195,-1.28037 -0.221192,0 -0.441828,-0.0937 -0.490352,-0.20824 -0.0485,-0.11454 -0.653733,-0.53628 -1.344957,-0.9372 -0.691224,-0.40092 -1.265872,-0.87276 -1.277011,-1.04852 -0.01111,-0.17577 -0.06953,-0.5577 -0.129752,-0.84875 -0.147717,-0.71392 -0.161845,-1.18423 -0.120835,-4.02354 0.03421,-2.37036 0.05686,-2.45429 0.839073,-3.11249 0.739669,-0.62239 0.780785,-0.74273 0.514694,-1.50604 -0.159041,-0.45628 -0.28919,-1.29892 -0.28919,-1.87254 0,-0.79066 -0.258603,-1.4116 -1.069049,-2.56697 -0.895826,-1.27709 -1.044733,-1.66974 -0.91895,-2.42331 0.08255,-0.4946 0.394123,-1.1043 0.692361,-1.3549 0.601689,-0.50556 0.545439,-0.92094 -0.3683,-2.71937 -0.460031,-0.90546 -0.536522,-1.5534 -0.529537,-4.48565 0.0079,-3.3151 0.03024,-3.44938 0.682255,-4.10105 0.370734,-0.37054 1.306459,-0.91184 2.079387,-1.20289 1.902142,-0.71624 3.400583,-2.0743 3.400583,-3.08199 0,-1.05659 0.571765,-2.29918 1.556094,-3.38181 0.736124,-0.80963 0.825156,-1.08323 0.825156,-2.53595 0,-1.47387 -0.07493,-1.69516 -0.789569,-2.33192 -0.906542,-0.80772 -2.488645,-3.80042 -2.924784,-5.5325 -0.256646,-1.01926 -0.20066,-1.57967 0.415237,-4.15541 0.628703,-2.62936 0.678366,-3.152 0.424921,-4.47259 -0.15785,-0.82243 -0.354356,-2.62642 -0.436695,-4.00887 -0.08236,-1.38245 -0.202379,-2.76383 -0.266726,-3.06974 -0.06435,-0.30591 -0.184573,-1.02029 -0.267176,-1.5875 -0.0826,-0.56722 -0.504058,-2.51958 -0.936546,-4.33859 -0.432514,-1.81901 -0.845423,-3.57446 -0.917575,-3.90099 -0.08202,-0.37116 -0.495564,-0.74595 -1.103312,-0.99988 -1.855444,-0.77525 -2.098279,-0.76613 -2.608713,0.098 -0.342953,0.58056 -0.906938,0.95423 -2.078302,1.37695 -0.884211,0.31909 -2.076481,0.80375 -2.649519,1.07701 -0.573037,0.27327 -1.069453,0.49684 -1.103151,0.49684 -0.0337,0 0.04354,-0.38695 0.171649,-0.85989 0.358288,-1.32276 0.123531,-4.50967 -0.389925,-5.2933 -0.544039,-0.83031 -0.471067,-3.28649 0.09395,-3.16232 0.193183,0.0425 2.866411,1.72297 5.940504,3.73449 8.379857,5.48332 17.538409,11.05465 21.993436,13.37905 2.182813,1.13888 4.087813,2.15464 4.233334,2.25725 0.719931,0.50763 8.88103,4.64017 11.90625,6.02897 1.89177,0.86846 5.999427,2.5648 9.128125,3.76963 3.128697,1.20482 5.783527,2.27263 5.899652,2.3729 0.116099,0.10027 0.09049,0.46831 -0.05694,0.81787 -0.147426,0.34956 -1.530959,4.14791 -3.074538,8.44077 -1.543553,4.29287 -3.265487,9.05537 -3.826483,10.58334 -6.124575,16.68106 -7.40836,20.45628 -7.40836,21.78563 0,0.79559 -0.167296,1.6188 -0.39505,1.94398 -0.572875,0.8179 -0.246671,1.96197 0.740331,2.59643 1.233593,0.79296 2.832735,3.75979 3.023658,5.60968 0.104484,1.01241 0.407221,1.91414 0.907468,2.70294 0.412883,0.65103 0.750676,1.30269 0.750676,1.44814 0,0.14545 0.280167,0.56862 0.622591,0.94038 0.34245,0.37177 0.775494,1.24455 0.962343,1.93953 0.186848,0.69497 0.444738,1.32847 0.573061,1.40778 0.33565,0.20745 1.437719,2.4799 1.655683,3.41405 0.101891,0.43656 1.033568,2.51106 2.070444,4.61001 1.09003,2.20653 1.886532,4.15958 1.888305,4.6302 0.0026,0.44767 -0.204788,1.93002 -0.458894,3.29411 -0.476303,2.55687 -0.407035,3.65865 0.29763,4.7341 0.410528,0.62653 0.389176,0.84 -0.07054,0.70591 z"
       style="fill:#d3d3d3;stroke-width:0.26458332" />
    </a>
	 <a xlink:href="http://www.tourismsaskatchewan.com">
	 <path
       d="m 141.04186,227.9404 c -0.0606,-0.0563 -1.06275,-0.18283 -2.22692,-0.28117 -1.16417,-0.0983 -2.41432,-0.2227 -2.77813,-0.27636 -0.3638,-0.0537 -1.43536,-0.17343 -2.38125,-0.26617 -0.94588,-0.0927 -2.01744,-0.21058 -2.38125,-0.26186 -0.3638,-0.0513 -1.43536,-0.17211 -2.38125,-0.2685 -0.94588,-0.0964 -4.63682,-0.83031 -8.20208,-1.63094 -3.56526,-0.80063 -6.66089,-1.49389 -6.87917,-1.54059 -1.20243,-0.25726 -1.88301,-0.41087 -3.43958,-0.77634 -0.94589,-0.22209 -1.95792,-0.44527 -2.24896,-0.49594 -0.29104,-0.0507 -1.45584,-0.30451 -2.58847,-0.56406 -1.67318,-0.38344 -2.03393,-0.5534 -1.92408,-0.90644 0.12621,-0.40558 2.20686,-8.95365 2.39202,-9.8272 0.0463,-0.21829 0.45789,-1.94469 0.91472,-3.83646 0.4568,-1.89177 1.25595,-5.22552 1.77583,-7.40833 0.5199,-2.18282 1.53786,-6.40953 2.26216,-9.39271 0.72429,-2.98318 1.3643,-5.66094 1.42224,-5.95059 0.0579,-0.28964 0.46429,-2.01605 0.90305,-3.83645 0.43876,-1.82041 1.33866,-5.57202 1.99977,-8.33692 0.66112,-2.7649 1.60393,-6.69396 2.09513,-8.73125 0.4912,-2.03729 1.32795,-5.51054 1.85944,-7.71833 l 0.96636,-4.01416 1.36925,0.11329 c 0.75308,0.0623 1.9536,0.20182 2.66782,0.31 0.71422,0.10819 2.22319,0.0871 3.35328,-0.0469 1.93905,-0.22992 2.14516,-0.20301 3.66308,0.47819 1.49921,0.6728 2.13611,0.72183 2.13611,0.16446 0,-0.29745 -5.62155,-3.03506 -7.01146,-3.41447 -0.58208,-0.15889 -1.32623,-0.28956 -1.65365,-0.29037 -0.32742,-7.9e-4 -0.83343,-0.2396 -1.12448,-0.53064 -0.58338,-0.58339 -1.34969,-0.67505 -2.13405,-0.25528 -0.60367,0.32308 -0.61573,0.2369 -0.22309,-1.59396 0.22651,-1.05622 0.38322,-1.31936 0.7276,-1.22187 0.39217,0.11101 2.26174,0.49558 4.02982,0.82893 0.35335,0.0666 0.88056,0.17098 1.1716,0.23191 0.88284,0.18484 11.85873,2.32164 12.56771,2.4467 0.3638,0.0642 2.09021,0.40077 3.83646,0.748 1.74625,0.34723 3.65125,0.67687 4.23333,0.73253 1.01926,0.0974 1.05685,0.13476 1.01799,1.01034 -0.0222,0.50003 -0.34637,3.11181 -0.72041,5.80395 -0.37404,2.69213 -0.75528,5.4901 -0.84717,6.2177 -0.16394,1.2977 -0.48546,1.98438 -0.92919,1.98438 -0.40569,0 -1.98975,1.7576 -2.33476,2.59053 -0.25083,0.60552 -0.26713,1.04528 -0.0628,1.69339 0.58848,1.86654 0.48519,2.78048 -0.41974,3.71413 -0.58695,0.60557 -0.77224,0.98157 -0.61174,1.24128 0.18714,0.30277 0.38719,0.24052 1.06799,-0.33234 0.46074,-0.3877 1.01396,-0.70491 1.22936,-0.70491 0.39724,0 0.39227,0.83368 -0.0362,6.08542 -0.0653,0.80036 -0.18674,2.52677 -0.26988,3.83646 -0.0831,1.30969 -0.201,2.91703 -0.26191,3.57187 -0.0609,0.65485 -0.1815,2.38125 -0.26797,3.83646 -0.0865,1.45521 -0.20386,3.06255 -0.2609,3.57188 -0.0571,0.50932 -0.17857,2.23573 -0.27004,3.83645 -0.0915,1.60073 -0.20798,3.20808 -0.25889,3.57188 -0.0509,0.3638 -0.17447,2.0902 -0.27451,3.83645 -0.10006,1.74625 -0.21394,3.35359 -0.25307,3.57188 -0.0391,0.21828 -0.15759,1.88515 -0.26326,3.70416 -0.10567,1.81901 -0.22474,3.48589 -0.26458,3.70417 -0.0398,0.21828 -0.15891,1.88515 -0.26459,3.70417 -0.10567,1.81901 -0.23201,3.51906 -0.28077,3.77787 -0.0487,0.25885 -0.11359,1.24111 -0.14407,2.18282 -0.0495,1.52887 -0.30742,2.05589 -0.78782,1.60988 z"
       id="CA-SK"
       style="fill:#d3d3d3;stroke-width:0.26458332" />
	   </a>
	 
  </g>
</svg>
